<svg width="260" height="64" viewBox="0 0 260 64" fill="none" xmlns="http://www.w3.org/2000/svg">
  <rect x="6" y="8" width="46" height="46" rx="14" fill="url(#bg)"/>
  <path d="M24 18.5C24 16.8431 25.3431 15.5 27 15.5H31C32.6569 15.5 34 16.8431 34 18.5V22.5C34 24.1569 32.6569 25.5 31 25.5H27C25.3431 25.5 24 24.1569 24 22.5V18.5Z" fill="white"/>
  <path d="M24 29.5C24 27.8431 25.3431 26.5 27 26.5H31C32.6569 26.5 34 27.8431 34 29.5V33.5C34 35.1569 32.6569 36.5 31 36.5H27C25.3431 36.5 24 35.1569 24 33.5V29.5Z" fill="white"/>
  <path d="M24 40.5C24 38.8431 25.3431 37.5 27 37.5H31C32.6569 37.5 34 38.8431 34 40.5V44.5C34 46.1569 32.6569 47.5 31 47.5H27C25.3431 47.5 24 46.1569 24 44.5V40.5Z" fill="white"/>
  <path d="M41 19L51 26" stroke="#7C8BFF" stroke-width="3" stroke-linecap="round"/>
  <path d="M41 45L51 38" stroke="#7C8BFF" stroke-width="3" stroke-linecap="round"/>
  <circle cx="52" cy="26" r="4" fill="#7C8BFF"/>
  <circle cx="52" cy="38" r="4" fill="#7C8BFF"/>
  <text x="66" y="31" fill="#111827" font-family="Inter, Arial, sans-serif" font-size="24" font-weight="700">ATLAS</text>
  <text x="66" y="48" fill="#6B7280" font-family="Inter, Arial, sans-serif" font-size="11" letter-spacing="1.7">AI EMPLOYEE</text>
  <defs>
    <linearGradient id="bg" x1="6" y1="8" x2="52" y2="54" gradientUnits="userSpaceOnUse">
      <stop stop-color="#5B6CFF"/>
      <stop offset="1" stop-color="#2F47CC"/>
    </linearGradient>
  </defs>
</svg>