<svg width="270" height="70" viewBox="0 0 270 70" fill="none" xmlns="http://www.w3.org/2000/svg">
  <rect x="8" y="12" width="44" height="44" rx="14" fill="var(--logo-mark-bg, #0F172A)"/>
  <path d="M28 20C28 17.7909 29.7909 16 32 16H34C36.2091 16 38 17.7909 38 20V22C38 24.2091 36.2091 26 34 26H32C29.7909 26 28 24.2091 28 22V20Z" fill="var(--logo-accent-1, #5B6CFF)"/>
  <path d="M28 32C28 29.7909 29.7909 28 32 28H34C36.2091 28 38 29.7909 38 32V34C38 36.2091 36.2091 38 34 38H32C29.7909 38 28 36.2091 28 34V32Z" fill="var(--logo-accent-2, #7DD3FC)"/>
  <path d="M28 44C28 41.7909 29.7909 40 32 40H34C36.2091 40 38 41.7909 38 44V46C38 48.2091 36.2091 50 34 50H32C29.7909 50 28 48.2091 28 46V44Z" fill="var(--logo-accent-3, #60A5FA)"/>
  <path d="M44 22L58 22" stroke="var(--logo-accent-1, #5B6CFF)" stroke-width="3" stroke-linecap="round"/>
  <path d="M44 34L58 34" stroke="var(--logo-accent-2, #7DD3FC)" stroke-width="3" stroke-linecap="round"/>
  <path d="M44 46L58 46" stroke="var(--logo-accent-3, #60A5FA)" stroke-width="3" stroke-linecap="round"/>
  <circle cx="61" cy="22" r="5" fill="var(--logo-accent-1, #5B6CFF)"/>
  <circle cx="61" cy="34" r="5" fill="var(--logo-accent-2, #7DD3FC)"/>
  <circle cx="61" cy="46" r="5" fill="var(--logo-accent-3, #60A5FA)"/>
  <text x="76" y="32" fill="var(--logo-text, #0F172A)" font-family="Inter, Arial, sans-serif" font-size="24" font-weight="700" letter-spacing="0.3">ATLAS</text>
  <text x="76" y="50" fill="var(--logo-subtext, #475569)" font-family="Inter, Arial, sans-serif" font-size="11" font-weight="600" letter-spacing="1.9">AI EMPLOYEE</text>
  <path d="M76 36C90 36 103 36 117 36" stroke="var(--logo-accent-2, #7DD3FC)" stroke-width="1.5" stroke-linecap="round" opacity="0.8"/>
</svg>